<svg width="16" height="13" viewBox="0 0 16 13" fill="none" xmlns="http://www.w3.org/2000/svg">
<path d="M15.5 6.25C15.4994 5.58771 15.3112 4.93914 14.9572 4.37935C14.6033 3.81957 14.0981 3.37146 13.5 3.08688V3C13.4995 2.35576 13.2915 1.72882 12.907 1.21195C12.5224 0.695069 11.9817 0.315716 11.3648 0.130017C10.7479 -0.0556826 10.0876 -0.0378625 9.48162 0.18084C8.87564 0.399543 8.35616 0.807509 8.00004 1.34438C7.64393 0.807509 7.12445 0.399543 6.51847 0.18084C5.91248 -0.0378625 5.2522 -0.0556826 4.6353 0.130017C4.01841 0.315716 3.47768 0.695069 3.09312 1.21195C2.70857 1.72882 2.50062 2.35576 2.50004 3V3.08688C1.9015 3.37068 1.39579 3.81851 1.04167 4.37833C0.687554 4.93814 0.499573 5.58696 0.499573 6.24937C0.499573 6.91179 0.687554 7.56061 1.04167 8.12042C1.39579 8.68024 1.9015 9.12807 2.50004 9.41187V9.5C2.50062 10.1442 2.70857 10.7712 3.09312 11.2881C3.47768 11.8049 4.01841 12.1843 4.6353 12.37C5.2522 12.5557 5.91248 12.5379 6.51847 12.3192C7.12445 12.1005 7.64393 11.6925 8.00004 11.1556C8.35616 11.6925 8.87564 12.1005 9.48162 12.3192C10.0876 12.5379 10.7479 12.5557 11.3648 12.37C11.9817 12.1843 12.5224 11.8049 12.907 11.2881C13.2915 10.7712 13.4995 10.1442 13.5 9.5V9.41187C14.098 9.12751 14.6032 8.67962 14.9571 8.12005C15.3111 7.56048 15.4993 6.91211 15.5 6.25ZM5.50004 11.5C5.00688 11.4999 4.53114 11.3177 4.16418 10.9882C3.79722 10.6587 3.56493 10.2053 3.51192 9.715C3.67361 9.73807 3.83672 9.74976 4.00004 9.75H4.50004C4.63265 9.75 4.75983 9.69732 4.8536 9.60355C4.94736 9.50979 5.00004 9.38261 5.00004 9.25C5.00004 9.11739 4.94736 8.99021 4.8536 8.89645C4.75983 8.80268 4.63265 8.75 4.50004 8.75H4.00004C3.40977 8.75069 2.83829 8.5425 2.38678 8.16228C1.93527 7.78206 1.63286 7.25434 1.53309 6.67256C1.43332 6.09078 1.54262 5.49246 1.84165 4.98353C2.14068 4.4746 2.61014 4.08789 3.16692 3.89188C3.26434 3.85738 3.34868 3.79355 3.40833 3.70916C3.46799 3.62477 3.50003 3.52397 3.50004 3.42063V3C3.50004 2.46957 3.71076 1.96086 4.08583 1.58579C4.4609 1.21071 4.96961 1 5.50004 1C6.03048 1 6.53918 1.21071 6.91426 1.58579C7.28933 1.96086 7.50004 2.46957 7.50004 3V7.26625C6.95099 6.77243 6.2385 6.49946 5.50004 6.5C5.36743 6.5 5.24026 6.55268 5.14649 6.64645C5.05272 6.74021 5.00004 6.86739 5.00004 7C5.00004 7.13261 5.05272 7.25979 5.14649 7.35355C5.24026 7.44732 5.36743 7.5 5.50004 7.5C6.03048 7.5 6.53918 7.71071 6.91426 8.08579C7.28933 8.46086 7.50004 8.96957 7.50004 9.5C7.50004 10.0304 7.28933 10.5391 6.91426 10.9142C6.53918 11.2893 6.03048 11.5 5.50004 11.5ZM12 8.75H11.5C11.3674 8.75 11.2403 8.80268 11.1465 8.89645C11.0527 8.99021 11 9.11739 11 9.25C11 9.38261 11.0527 9.50979 11.1465 9.60355C11.2403 9.69732 11.3674 9.75 11.5 9.75H12C12.1634 9.74976 12.3265 9.73807 12.4882 9.715C12.4466 10.0992 12.2947 10.4631 12.0507 10.7627C11.8068 11.0624 11.4812 11.2849 11.1135 11.4035C10.7457 11.5221 10.3515 11.5316 9.97841 11.4309C9.60536 11.3301 9.26948 11.1235 9.01137 10.8359C8.75327 10.5484 8.58399 10.1922 8.524 9.81048C8.46402 9.42876 8.51589 9.03783 8.67336 8.68497C8.83083 8.3321 9.08714 8.03241 9.41132 7.82212C9.73549 7.61183 10.1136 7.49994 10.5 7.5C10.6327 7.5 10.7598 7.44732 10.8536 7.35355C10.9474 7.25979 11 7.13261 11 7C11 6.86739 10.9474 6.74021 10.8536 6.64645C10.7598 6.55268 10.6327 6.5 10.5 6.5C9.76159 6.49946 9.0491 6.77243 8.50004 7.26625V3C8.50004 2.46957 8.71076 1.96086 9.08583 1.58579C9.4609 1.21071 9.96961 1 10.5 1C11.0305 1 11.5392 1.21071 11.9143 1.58579C12.2893 1.96086 12.5 2.46957 12.5 3V3.42063C12.5001 3.52397 12.5321 3.62477 12.5918 3.70916C12.6514 3.79355 12.7357 3.85738 12.8332 3.89188C13.3899 4.08789 13.8594 4.4746 14.1584 4.98353C14.4575 5.49246 14.5668 6.09078 14.467 6.67256C14.3672 7.25434 14.0648 7.78206 13.6133 8.16228C13.1618 8.5425 12.5903 8.75069 12 8.75ZM13 5.5C13 5.63261 12.9474 5.75979 12.8536 5.85355C12.7598 5.94732 12.6327 6 12.5 6H12.25C11.6533 6 11.081 5.76295 10.6591 5.34099C10.2371 4.91903 10 4.34674 10 3.75V3.5C10 3.36739 10.0527 3.24022 10.1465 3.14645C10.2403 3.05268 10.3674 3 10.5 3C10.6327 3 10.7598 3.05268 10.8536 3.14645C10.9474 3.24022 11 3.36739 11 3.5V3.75C11 4.08152 11.1317 4.39946 11.3662 4.63388C11.6006 4.8683 11.9185 5 12.25 5H12.5C12.6327 5 12.7598 5.05268 12.8536 5.14645C12.9474 5.24021 13 5.36739 13 5.5ZM3.75004 6H3.50004C3.36743 6 3.24026 5.94732 3.14649 5.85355C3.05272 5.75979 3.00004 5.63261 3.00004 5.5C3.00004 5.36739 3.05272 5.24021 3.14649 5.14645C3.24026 5.05268 3.36743 5 3.50004 5H3.75004C4.08156 5 4.3995 4.8683 4.63393 4.63388C4.86835 4.39946 5.00004 4.08152 5.00004 3.75V3.5C5.00004 3.36739 5.05272 3.24022 5.14649 3.14645C5.24026 3.05268 5.36743 3 5.50004 3C5.63265 3 5.75983 3.05268 5.8536 3.14645C5.94736 3.24022 6.00004 3.36739 6.00004 3.5V3.75C6.00004 4.34674 5.76299 4.91903 5.34103 5.34099C4.91908 5.76295 4.34678 6 3.75004 6Z" fill="#84CC16"/>
</svg>
