<svg width="14" height="14" viewBox="0 0 14 14" fill="none" xmlns="http://www.w3.org/2000/svg">
<path d="M13.0194 3.72999C13.1722 3.23699 13.2212 2.71767 13.1634 2.20478C13.1055 1.69188 12.942 1.19654 12.6831 0.749993C12.6392 0.673967 12.5761 0.610837 12.5001 0.566952C12.424 0.523067 12.3378 0.499973 12.25 0.499993C11.6676 0.498774 11.093 0.633783 10.5721 0.894233C10.0512 1.15468 9.59845 1.53335 9.25 1.99999H7.75C7.40155 1.53335 6.94878 1.15468 6.42788 0.894233C5.90698 0.633783 5.33238 0.498774 4.75 0.499993C4.66221 0.499973 4.57597 0.523067 4.49994 0.566952C4.4239 0.610837 4.36077 0.673967 4.31687 0.749993C4.05803 1.19654 3.89452 1.69188 3.83664 2.20478C3.77877 2.71767 3.8278 3.23699 3.98062 3.72999C3.6717 4.26919 3.50623 4.8786 3.5 5.49999V5.99999C3.50105 6.84599 3.80817 7.66305 4.36464 8.30028C4.92111 8.93751 5.68935 9.35188 6.5275 9.46687C6.18538 9.90466 5.99968 10.4444 6 11V11.5H4.5C4.10218 11.5 3.72064 11.342 3.43934 11.0607C3.15804 10.7793 3 10.3978 3 9.99999C3 9.67169 2.93534 9.3466 2.8097 9.04328C2.68406 8.73997 2.49991 8.46437 2.26777 8.23223C2.03562 8.00008 1.76002 7.81593 1.45671 7.69029C1.15339 7.56466 0.828305 7.49999 0.5 7.49999C0.367392 7.49999 0.240215 7.55267 0.146447 7.64644C0.0526784 7.74021 0 7.86738 0 7.99999C0 8.1326 0.0526784 8.25978 0.146447 8.35355C0.240215 8.44731 0.367392 8.49999 0.5 8.49999C0.897825 8.49999 1.27936 8.65803 1.56066 8.93933C1.84196 9.22064 2 9.60217 2 9.99999C2 10.663 2.26339 11.2989 2.73223 11.7678C3.20107 12.2366 3.83696 12.5 4.5 12.5H6V13.5C6 13.6326 6.05268 13.7598 6.14645 13.8535C6.24021 13.9473 6.36739 14 6.5 14C6.63261 14 6.75979 13.9473 6.85355 13.8535C6.94732 13.7598 7 13.6326 7 13.5V11C7 10.6022 7.15804 10.2206 7.43934 9.93933C7.72064 9.65803 8.10218 9.49999 8.5 9.49999C8.89782 9.49999 9.27936 9.65803 9.56066 9.93933C9.84196 10.2206 10 10.6022 10 11V13.5C10 13.6326 10.0527 13.7598 10.1464 13.8535C10.2402 13.9473 10.3674 14 10.5 14C10.6326 14 10.7598 13.9473 10.8536 13.8535C10.9473 13.7598 11 13.6326 11 13.5V11C11.0003 10.4444 10.8146 9.90466 10.4725 9.46687C11.3107 9.35188 12.0789 8.93751 12.6354 8.30028C13.1918 7.66305 13.4989 6.84599 13.5 5.99999V5.49999C13.4938 4.8786 13.3283 4.26919 13.0194 3.72999ZM12.5 5.99999C12.5 6.66303 12.2366 7.29892 11.7678 7.76776C11.2989 8.2366 10.663 8.49999 10 8.49999H7C6.33696 8.49999 5.70107 8.2366 5.23223 7.76776C4.76339 7.29892 4.5 6.66303 4.5 5.99999V5.49999C4.50613 5.00001 4.65582 4.51232 4.93125 4.09499C4.98259 4.02732 5.01585 3.94768 5.02788 3.86358C5.03991 3.77949 5.03031 3.69372 5 3.61437C4.86976 3.27849 4.80709 2.92022 4.81556 2.56007C4.82403 2.19993 4.90349 1.845 5.04938 1.51562C5.45857 1.55964 5.85262 1.69519 6.2023 1.91222C6.55198 2.12926 6.84832 2.42221 7.06938 2.76937C7.11442 2.83981 7.17641 2.89783 7.24968 2.93812C7.32294 2.97841 7.40514 2.99968 7.48875 2.99999H9.51062C9.59455 3 9.67713 2.97887 9.75075 2.93857C9.82437 2.89826 9.88666 2.84008 9.93188 2.76937C10.1529 2.42218 10.4492 2.12921 10.7989 1.91217C11.1486 1.69513 11.5427 1.55959 11.9519 1.51562C12.0976 1.84508 12.1768 2.20006 12.1851 2.5602C12.1933 2.92034 12.1304 3.27857 12 3.61437C11.9698 3.69297 11.9597 3.77786 11.9706 3.86136C11.9815 3.94486 12.0131 4.0243 12.0625 4.09249C12.3407 4.50982 12.4926 4.99851 12.5 5.49999V5.99999Z" fill="#A1A1AA"/>
</svg>
