<svg width="14" height="14" viewBox="0 0 14 14" fill="none" xmlns="http://www.w3.org/2000/svg">
<path d="M6.5 1.5V1C6.5 0.867392 6.55268 0.740215 6.64645 0.646447C6.74021 0.552678 6.86739 0.5 7 0.5C7.13261 0.5 7.25979 0.552678 7.35355 0.646447C7.44732 0.740215 7.5 0.867392 7.5 1V1.5C7.5 1.63261 7.44732 1.75979 7.35355 1.85355C7.25979 1.94732 7.13261 2 7 2C6.86739 2 6.74021 1.94732 6.64645 1.85355C6.55268 1.75979 6.5 1.63261 6.5 1.5ZM11 7C11 7.79113 10.7654 8.56448 10.3259 9.22228C9.88635 9.88008 9.26164 10.3928 8.53073 10.6955C7.79983 10.9983 6.99556 11.0775 6.21964 10.9231C5.44371 10.7688 4.73098 10.3878 4.17157 9.82843C3.61216 9.26902 3.2312 8.55629 3.07686 7.78036C2.92252 7.00444 3.00173 6.20017 3.30448 5.46927C3.60723 4.73836 4.11992 4.11365 4.77772 3.67412C5.43552 3.2346 6.20887 3 7 3C8.06051 3.00116 9.07725 3.42296 9.82715 4.17285C10.577 4.92275 10.9988 5.93949 11 7ZM10 7C10 6.40666 9.82405 5.82664 9.49441 5.33329C9.16476 4.83994 8.69623 4.45542 8.14805 4.22836C7.59987 4.0013 6.99667 3.94189 6.41473 4.05764C5.83279 4.1734 5.29824 4.45912 4.87868 4.87868C4.45912 5.29824 4.1734 5.83279 4.05764 6.41473C3.94189 6.99667 4.0013 7.59987 4.22836 8.14805C4.45542 8.69623 4.83994 9.16476 5.33329 9.49441C5.82664 9.82405 6.40666 10 7 10C7.7954 9.99917 8.55798 9.68284 9.12041 9.12041C9.68284 8.55798 9.99917 7.7954 10 7ZM2.64625 3.35375C2.74007 3.44757 2.86732 3.50028 3 3.50028C3.13268 3.50028 3.25993 3.44757 3.35375 3.35375C3.44757 3.25993 3.50028 3.13268 3.50028 3C3.50028 2.86732 3.44757 2.74007 3.35375 2.64625L2.85375 2.14625C2.75993 2.05243 2.63268 1.99972 2.5 1.99972C2.36732 1.99972 2.24007 2.05243 2.14625 2.14625C2.05243 2.24007 1.99972 2.36732 1.99972 2.5C1.99972 2.63268 2.05243 2.75993 2.14625 2.85375L2.64625 3.35375ZM2.64625 10.6462L2.14625 11.1462C2.05243 11.2401 1.99972 11.3673 1.99972 11.5C1.99972 11.6327 2.05243 11.7599 2.14625 11.8538C2.24007 11.9476 2.36732 12.0003 2.5 12.0003C2.63268 12.0003 2.75993 11.9476 2.85375 11.8538L3.35375 11.3538C3.40021 11.3073 3.43706 11.2521 3.4622 11.1914C3.48734 11.1308 3.50028 11.0657 3.50028 11C3.50028 10.9343 3.48734 10.8692 3.4622 10.8086C3.43706 10.7479 3.40021 10.6927 3.35375 10.6462C3.3073 10.5998 3.25214 10.5629 3.19145 10.5378C3.13075 10.5127 3.0657 10.4997 3 10.4997C2.9343 10.4997 2.86925 10.5127 2.80855 10.5378C2.74786 10.5629 2.69271 10.5998 2.64625 10.6462ZM11 3.5C11.0657 3.50005 11.1307 3.48716 11.1914 3.46207C11.2521 3.43697 11.3073 3.40017 11.3538 3.35375L11.8538 2.85375C11.9476 2.75993 12.0003 2.63268 12.0003 2.5C12.0003 2.36732 11.9476 2.24007 11.8538 2.14625C11.7599 2.05243 11.6327 1.99972 11.5 1.99972C11.3673 1.99972 11.2401 2.05243 11.1462 2.14625L10.6462 2.64625C10.5762 2.71618 10.5286 2.8053 10.5092 2.90235C10.4899 2.99939 10.4998 3.09998 10.5377 3.1914C10.5756 3.28281 10.6397 3.36092 10.722 3.41586C10.8043 3.4708 10.9011 3.50008 11 3.5ZM11.3538 10.6462C11.2599 10.5524 11.1327 10.4997 11 10.4997C10.8673 10.4997 10.7401 10.5524 10.6462 10.6462C10.5524 10.7401 10.4997 10.8673 10.4997 11C10.4997 11.1327 10.5524 11.2599 10.6462 11.3538L11.1462 11.8538C11.1927 11.9002 11.2479 11.9371 11.3086 11.9622C11.3692 11.9873 11.4343 12.0003 11.5 12.0003C11.5657 12.0003 11.6308 11.9873 11.6914 11.9622C11.7521 11.9371 11.8073 11.9002 11.8538 11.8538C11.9002 11.8073 11.9371 11.7521 11.9622 11.6914C11.9873 11.6308 12.0003 11.5657 12.0003 11.5C12.0003 11.4343 11.9873 11.3692 11.9622 11.3086C11.9371 11.2479 11.9002 11.1927 11.8538 11.1462L11.3538 10.6462ZM1.5 6.5H1C0.867392 6.5 0.740215 6.55268 0.646447 6.64645C0.552678 6.74021 0.5 6.86739 0.5 7C0.5 7.13261 0.552678 7.25979 0.646447 7.35355C0.740215 7.44732 0.867392 7.5 1 7.5H1.5C1.63261 7.5 1.75979 7.44732 1.85355 7.35355C1.94732 7.25979 2 7.13261 2 7C2 6.86739 1.94732 6.74021 1.85355 6.64645C1.75979 6.55268 1.63261 6.5 1.5 6.5ZM7 12C6.86739 12 6.74021 12.0527 6.64645 12.1464C6.55268 12.2402 6.5 12.3674 6.5 12.5V13C6.5 13.1326 6.55268 13.2598 6.64645 13.3536C6.74021 13.4473 6.86739 13.5 7 13.5C7.13261 13.5 7.25979 13.4473 7.35355 13.3536C7.44732 13.2598 7.5 13.1326 7.5 13V12.5C7.5 12.3674 7.44732 12.2402 7.35355 12.1464C7.25979 12.0527 7.13261 12 7 12ZM13 6.5H12.5C12.3674 6.5 12.2402 6.55268 12.1464 6.64645C12.0527 6.74021 12 6.86739 12 7C12 7.13261 12.0527 7.25979 12.1464 7.35355C12.2402 7.44732 12.3674 7.5 12.5 7.5H13C13.1326 7.5 13.2598 7.44732 13.3536 7.35355C13.4473 7.25979 13.5 7.13261 13.5 7C13.5 6.86739 13.4473 6.74021 13.3536 6.64645C13.2598 6.55268 13.1326 6.5 13 6.5Z" fill="#A1A1AA"/>
</svg>
