<svg width="15" height="14" viewBox="0 0 15 14" fill="none" xmlns="http://www.w3.org/2000/svg">
<path d="M4 3V1C4 0.867392 4.05268 0.740215 4.14645 0.646447C4.24021 0.552678 4.36739 0.5 4.5 0.5C4.63261 0.5 4.75979 0.552678 4.85355 0.646447C4.94732 0.740215 5 0.867392 5 1V3C5 3.13261 4.94732 3.25979 4.85355 3.35355C4.75979 3.44732 4.63261 3.5 4.5 3.5C4.36739 3.5 4.24021 3.44732 4.14645 3.35355C4.05268 3.25979 4 3.13261 4 3ZM6.5 3.5C6.63261 3.5 6.75979 3.44732 6.85355 3.35355C6.94732 3.25979 7 3.13261 7 3V1C7 0.867392 6.94732 0.740215 6.85355 0.646447C6.75979 0.552678 6.63261 0.5 6.5 0.5C6.36739 0.5 6.24021 0.552678 6.14645 0.646447C6.05268 0.740215 6 0.867392 6 1V3C6 3.13261 6.05268 3.25979 6.14645 3.35355C6.24021 3.44732 6.36739 3.5 6.5 3.5ZM8.5 3.5C8.63261 3.5 8.75979 3.44732 8.85355 3.35355C8.94732 3.25979 9 3.13261 9 3V1C9 0.867392 8.94732 0.740215 8.85355 0.646447C8.75979 0.552678 8.63261 0.5 8.5 0.5C8.36739 0.5 8.24021 0.552678 8.14645 0.646447C8.05268 0.740215 8 0.867392 8 1V3C8 3.13261 8.05268 3.25979 8.14645 3.35355C8.24021 3.44732 8.36739 3.5 8.5 3.5ZM14.5 7V7.5C14.4998 8.13597 14.2572 8.74795 13.8217 9.21137C13.3861 9.67478 12.7904 9.95479 12.1556 9.99438C11.8146 10.9591 11.2339 11.8213 10.4681 12.5H12C12.1326 12.5 12.2598 12.5527 12.3536 12.6464C12.4473 12.7402 12.5 12.8674 12.5 13C12.5 13.1326 12.4473 13.2598 12.3536 13.3536C12.2598 13.4473 12.1326 13.5 12 13.5H1C0.867392 13.5 0.740215 13.4473 0.646447 13.3536C0.552678 13.2598 0.5 13.1326 0.5 13C0.5 12.8674 0.552678 12.7402 0.646447 12.6464C0.740215 12.5527 0.867392 12.5 1 12.5H2.53375C1.89581 11.9364 1.38468 11.2439 1.03411 10.4682C0.683538 9.69248 0.501494 8.85124 0.5 8V5C0.5 4.86739 0.552678 4.74021 0.646447 4.64645C0.740215 4.55268 0.867392 4.5 1 4.5H12C12.663 4.5 13.2989 4.76339 13.7678 5.23223C14.2366 5.70107 14.5 6.33696 14.5 7ZM11.5 5.5H1.5V8C1.50193 8.9388 1.76723 9.85822 2.26575 10.6537C2.76427 11.4492 3.47599 12.0889 4.32 12.5H8.68C9.52401 12.0889 10.2357 11.4492 10.7343 10.6537C11.2328 9.85822 11.4981 8.9388 11.5 8V5.5ZM13.5 7C13.4999 6.68989 13.4037 6.38743 13.2246 6.13425C13.0455 5.88107 12.7924 5.68962 12.5 5.58625V8C12.4996 8.31398 12.4745 8.62745 12.425 8.9375C12.7352 8.84585 13.0075 8.65636 13.2013 8.3973C13.395 8.13824 13.4998 7.82349 13.5 7.5V7Z" fill="#F59E0B"/>
</svg>
