<svg width="14" height="13" viewBox="0 0 14 13" fill="none" xmlns="http://www.w3.org/2000/svg">
<path d="M13.9469 12.2762L10.4469 5.27625C10.4053 5.19321 10.3415 5.12338 10.2625 5.07457C10.1835 5.02576 10.0925 4.99991 9.99969 4.99991C9.90684 4.99991 9.81583 5.02576 9.73685 5.07457C9.65786 5.12338 9.59403 5.19321 9.5525 5.27625L8.19563 7.99063C7.13206 7.93082 6.10875 7.56344 5.25 6.93313C6.25755 5.85716 6.86803 4.46976 6.98063 3H8.5C8.63261 3 8.75979 2.94732 8.85355 2.85355C8.94732 2.75979 9 2.63261 9 2.5C9 2.36739 8.94732 2.24021 8.85355 2.14645C8.75979 2.05268 8.63261 2 8.5 2H5V1C5 0.867392 4.94732 0.740215 4.85355 0.646447C4.75979 0.552678 4.63261 0.5 4.5 0.5C4.36739 0.5 4.24021 0.552678 4.14645 0.646447C4.05268 0.740215 4 0.867392 4 1V2H0.5C0.367392 2 0.240215 2.05268 0.146447 2.14645C0.0526784 2.24021 0 2.36739 0 2.5C0 2.63261 0.0526784 2.75979 0.146447 2.85355C0.240215 2.94732 0.367392 3 0.5 3H5.97687C5.86551 4.22541 5.34535 5.37778 4.5 6.27187C3.97322 5.71604 3.56871 5.05604 3.3125 4.33437C3.29143 4.27141 3.25804 4.21327 3.21426 4.16335C3.17048 4.11343 3.1172 4.07273 3.05753 4.04363C2.99785 4.01452 2.93298 3.99759 2.86669 3.99383C2.8004 3.99006 2.73402 3.99954 2.67144 4.0217C2.60885 4.04386 2.5513 4.07827 2.50216 4.12291C2.45301 4.16755 2.41324 4.22154 2.38518 4.28171C2.35712 4.34189 2.34133 4.40705 2.33872 4.47339C2.33612 4.53974 2.34675 4.60593 2.37 4.66813C2.66829 5.51179 3.13817 6.28449 3.75 6.9375C2.80798 7.62974 1.66902 8.00209 0.5 8C0.367392 8 0.240215 8.05268 0.146447 8.14645C0.0526784 8.24021 0 8.36739 0 8.5C0 8.63261 0.0526784 8.75979 0.146447 8.85355C0.240215 8.94732 0.367392 9 0.5 9C1.95037 9.00161 3.35916 8.51558 4.5 7.62C5.43098 8.34742 6.54235 8.80782 7.715 8.95187L6.0525 12.2762C5.99316 12.3949 5.98336 12.5322 6.02526 12.658C6.06717 12.7838 6.15734 12.8878 6.27594 12.9472C6.39454 13.0065 6.53186 13.0163 6.65768 12.9744C6.78351 12.9325 6.88753 12.8424 6.94688 12.7238L7.80875 11H12.1906L13.0525 12.7238C13.0941 12.8068 13.158 12.8767 13.237 12.9255C13.316 12.9743 13.4071 13.0001 13.5 13C13.5852 13 13.669 12.9781 13.7434 12.9366C13.8178 12.8951 13.8804 12.8352 13.9252 12.7627C13.9699 12.6902 13.9954 12.6074 13.9992 12.5223C14.003 12.4372 13.985 12.3525 13.9469 12.2762ZM8.30875 10L10 6.61812L11.6906 10H8.30875Z" fill="#A1A1AA"/>
</svg>
